<svg viewBox="0 0 1000 800" xmlns="http://www.w3.org/2000/svg" style="background:#FCFEFF"><title>products-hero</title><g fill="none" fill-rule="evenodd"><circle stroke="#172C4C" stroke-width="2" cx="501" cy="421" r="300"/><path d="M572.21 62.79c39.053 39.052 39.053 102.368 0 141.42-39.052 39.053-102.368 39.053-141.42 0-39.053-39.052-39.053-102.368 0-141.42 39.052-39.053 102.368-39.053 141.42 0zm281 205c39.053 39.052 39.053 102.368 0 141.42-39.052 39.053-102.368 39.053-141.42 0-39.053-39.052-39.053-102.368 0-141.42 39.052-39.053 102.368-39.053 141.42 0m-108.5 329.5c39.053 39.052 39.053 102.368 0 141.42-39.052 39.053-102.368 39.053-141.42 0-39.053-39.052-39.053-102.368 0-141.42 39.052-39.053 102.368-39.053 141.42 0m-346.5.5c39.053 39.052 39.053 102.368 0 141.42-39.052 39.053-102.368 39.053-141.42 0-39.053-39.052-39.053-102.368 0-141.42 39.052-39.053 102.368-39.053 141.42 0m-109-331c39.053 39.052 39.053 102.368 0 141.42-39.052 39.053-102.368 39.053-141.42 0-39.053-39.052-39.053-102.368 0-141.42 39.052-39.053 102.368-39.053 141.42 0" fill="#FCFEFF"/><path d="M747.1 250.054l-1.355-6.7-4.07 2.544zM595.13 136.498l5.42 4.166 1.403-4.59zm-188.663-.29l-6.835-.068 1.642 4.51zM254.557 250.92l5.28-4.342-4.158-2.4zM201.4 432l-2.4 6.4h4.8zm599 1l-2.4 6.4h4.8zm-56.412 163.463l5.768-3.667-3.833-2.89zm-158.16 111.82l-6.828-.305 1.483 4.565zm-170.086 0l6.828-.305-1.483 4.565zm-157.46-110.58l-1.705-6.62-3.932 2.753z" stroke-width="4" stroke="#172C4C"/><g fill="#172C4C"><path d="M530.375 143.495c0-1.46-1.18-2.628-2.634-2.628-.04 0-.08.023-.14.023l-52.17-.023-.04.036c-.01-.013-.03-.013-.04-.013-1.45 0-2.63 1.18-2.63 2.64v31.81c0 4.24 16.02 16.013 16.02 16.013s-1.1 11.727 3.217 16.038c5.31 5.31 13.913 5.31 19.227 0 4.305-4.31 3.195-16.03 3.195-16.03s16.03-10.85 16.03-16.01v-31.81l-.004-.01v-.02zM506.63 99.01c0 1.087.146 1.927.328 2.512.174-.585.33-1.425.33-2.512 0-1.086-.156-1.928-.33-2.51-.182.582-.33 1.424-.33 2.51m-5.218 0c0 1.087.154 1.927.328 2.512.18-.585.336-1.425.336-2.512 0-1.086-.155-1.928-.336-2.51-.174.582-.33 1.424-.33 2.51m-10.308 0c0 1.087.153 1.927.334 2.512.175-.585.33-1.425.33-2.512 0-1.086-.148-1.928-.33-2.51-.18.582-.335 1.424-.335 2.51m5.22 0c0 1.087.15 1.927.32 2.512.18-.585.33-1.425.33-2.512 0-1.086-.15-1.928-.33-2.51-.18.582-.33 1.424-.33 2.51m15.53 0c0 1.087.15 1.927.33 2.512.18-.585.33-1.425.33-2.512 0-1.086-.15-1.928-.33-2.51-.18.582-.33 1.424-.33 2.51"/><path d="M509.614 101.746c-.385 1.787-1.19 3.235-2.633 3.235-1.43 0-2.24-1.44-2.63-3.23-.38 1.79-1.19 3.24-2.63 3.24-1.43 0-2.25-1.44-2.63-3.23-.38 1.79-1.19 3.24-2.63 3.24s-2.25-1.44-2.63-3.23c-.38 1.79-1.19 3.24-2.63 3.24-2.15 0-2.92-3.246-2.92-6.015 0-2.77.768-6.02 2.93-6.02 1.435 0 2.25 1.45 2.633 3.223.388-1.78 1.2-3.227 2.636-3.227 1.435 0 2.25 1.45 2.632 3.223.386-1.776 1.198-3.225 2.635-3.225s2.25 1.45 2.634 3.227c.388-1.775 1.2-3.224 2.637-3.224 1.44 0 2.25 1.45 2.63 3.226.39-1.774 1.2-3.223 2.638-3.223 2.157 0 2.928 3.24 2.928 6.01 0 2.77-.77 6.02-2.923 6.02-1.44 0-2.25-1.45-2.635-3.238zm-34.406-37.438c-6.897 6.915-11.11 16.33-11.208 26.854 0 6.998 1.904 13.515 5.198 19.228.514.898 9.63 17.825 10.227 19.612.49 1.12.7 4.72.998 6.027l10.917.09-8.72-32.76c-.193-.8 0-1.8.612-2.4.3-.31.597-.41 1.093-.51 1.21-.41 2.506.29 2.915 1.49l9.11 34.153h10.818l9.42-34.25c.187-.407.298-.7.596-1 .596-.598 1.49-.9 2.4-.598 1.302.29 2.004 1.6 1.6 3l-9.006 32.834 10.9-.08c.21-1.407.507-5.12 1.004-6.22.613-1.823 9.923-18.726 10.518-19.73 3.3-5.71 5.31-12.324 5.31-19.33.098-20.935-16.833-37.85-37.765-37.756-10.502.103-20.016 4.413-26.937 11.305z"/></g><g transform="translate(218 629)"><path d="M32.11 11.25V4.006C32.11 1.793 33.898 0 36.113 0h9.776c2.21 0 4 1.788 4 4.005v7.246c2.05.6 4.03 1.39 5.89 2.36l4.91-4.91c1.56-1.56 4.09-1.56 5.66 0l6.91 6.91c1.56 1.57 1.56 4.1 0 5.67l-4.61 4.61c1.22 2.11 2.22 4.36 2.95 6.73h6.13c2.21 0 4 1.79 4 4v9.78c0 2.21-1.79 4-4.01 4h-5.85c-.68 2.5-1.65 4.88-2.88 7.09l4.25 4.25c1.563 1.57 1.57 4.1 0 5.66l-6.91 6.91c-1.56 1.57-4.09 1.57-5.66 0l-4.26-4.26c-2.05 1.14-4.24 2.05-6.54 2.71V79c0 2.21-1.79 4.004-4.006 4.004H36.1c-2.21 0-4-1.787-4-4.004v-6.25c-2.3-.664-4.49-1.577-6.54-2.71L21.3 74.3c-1.562 1.563-4.093 1.567-5.66 0l-6.91-6.91c-1.563-1.564-1.565-4.094.002-5.662l4.248-4.248c-1.227-2.216-2.198-4.593-2.875-7.09h-5.84C2.05 50.39.26 48.602.26 46.387V36.61c0-2.21 1.787-4 4.004-4H10.4c.726-2.372 1.72-4.626 2.95-6.73l-4.612-4.61c-1.564-1.563-1.57-4.093-.002-5.66l6.912-6.91c1.563-1.564 4.093-1.566 5.66 0l4.91 4.91c1.865-.97 3.836-1.766 5.893-2.36zM41 64c12.15 0 22-9.85 22-22s-9.85-22-22-22-22 9.85-22 22 9.85 22 22 22z" fill="#172C4C"/><path d="M54.57 24.683C61.39 15.48 66.353 8.7 66.353 8.7c-1.566-1.567-4.097-1.563-5.66 0l-4.91 4.91c-1.865-.97-3.836-1.766-5.893-2.36V4.006C49.89 1.788 48.097 0 45.887 0H36.11c-2.214 0-4 1.793-4 4.005v7.246c-2.057.6-4.03 1.39-5.892 2.36L21.31 8.7c-1.57-1.566-4.1-1.564-5.662 0l-6.912 6.91c-1.567 1.568-1.562 4.098.002 5.662l4.61 4.61c-1.227 2.103-2.222 4.357-2.95 6.73H4.265c-2.217 0-4.005 1.79-4.005 4v9.776c0 2.215 1.792 4 4.004 4h5.847c.68 2.5 1.65 4.876 2.88 7.092l-4.25 4.248c-1.56 1.568-1.56 4.098 0 5.66l6.91 6.912c.49.49 5.62-5.72 12.43-14.49C22.58 55.807 19 49.322 19 42c0-12.15 9.85-22 22-22 5.12 0 9.833 1.75 13.57 4.683z" fill="#FCFEFF" opacity=".1"/><circle stroke="#172C4C" stroke-width="3" cx="41" cy="42" r="10"/></g><g transform="translate(301 592)"><path d="M32.11 11.25V4.006C32.11 1.793 33.898 0 36.113 0h9.776c2.21 0 4 1.788 4 4.005v7.246c2.05.6 4.03 1.39 5.89 2.36l4.91-4.91c1.56-1.56 4.09-1.56 5.66 0l6.91 6.91c1.56 1.57 1.56 4.1 0 5.67l-4.61 4.61c1.22 2.11 2.22 4.36 2.95 6.73h6.13c2.21 0 4 1.79 4 4v9.78c0 2.21-1.79 4-4.01 4h-5.85c-.68 2.5-1.65 4.88-2.88 7.09l4.25 4.25c1.563 1.57 1.57 4.1 0 5.66l-6.91 6.91c-1.56 1.57-4.09 1.57-5.66 0l-4.26-4.26c-2.05 1.14-4.24 2.05-6.54 2.71V79c0 2.21-1.79 4.004-4.006 4.004H36.1c-2.21 0-4-1.787-4-4.004v-6.25c-2.3-.664-4.49-1.577-6.54-2.71L21.3 74.3c-1.562 1.563-4.093 1.567-5.66 0l-6.91-6.91c-1.563-1.564-1.565-4.094.002-5.662l4.248-4.248c-1.227-2.216-2.198-4.593-2.875-7.09h-5.84C2.05 50.39.26 48.602.26 46.387V36.61c0-2.21 1.787-4 4.004-4H10.4c.726-2.372 1.72-4.626 2.95-6.73l-4.612-4.61c-1.564-1.563-1.57-4.093-.002-5.66l6.912-6.91c1.563-1.564 4.093-1.566 5.66 0l4.91 4.91c1.865-.97 3.836-1.766 5.893-2.36zM41 64c12.15 0 22-9.85 22-22s-9.85-22-22-22-22 9.85-22 22 9.85 22 22 22z" fill="#172C4C"/><path d="M54.57 24.683C61.39 15.48 66.353 8.7 66.353 8.7c-1.566-1.567-4.097-1.563-5.66 0l-4.91 4.91c-1.865-.97-3.836-1.766-5.893-2.36V4.006C49.89 1.788 48.097 0 45.887 0H36.11c-2.214 0-4 1.793-4 4.005v7.246c-2.057.6-4.03 1.39-5.892 2.36L21.31 8.7c-1.57-1.566-4.1-1.564-5.662 0l-6.912 6.91c-1.567 1.568-1.562 4.098.002 5.662l4.61 4.61c-1.227 2.103-2.222 4.357-2.95 6.73H4.265c-2.217 0-4.005 1.79-4.005 4v9.776c0 2.215 1.792 4 4.004 4h5.847c.68 2.5 1.65 4.876 2.88 7.092l-4.25 4.248c-1.56 1.568-1.56 4.098 0 5.66l6.91 6.912c.49.49 5.62-5.72 12.43-14.49C22.58 55.807 19 49.322 19 42c0-12.15 9.85-22 22-22 5.12 0 9.833 1.75 13.57 4.683z" fill="#FCFEFF" opacity=".1"/><circle stroke="#172C4C" stroke-width="3" cx="41" cy="42" r="10"/></g><g transform="translate(289 684)"><path d="M32.11 11.25V4.006C32.11 1.793 33.898 0 36.113 0h9.776c2.21 0 4 1.788 4 4.005v7.246c2.05.6 4.03 1.39 5.89 2.36l4.91-4.91c1.56-1.56 4.09-1.56 5.66 0l6.91 6.91c1.56 1.57 1.56 4.1 0 5.67l-4.61 4.61c1.22 2.11 2.22 4.36 2.95 6.73h6.13c2.21 0 4 1.79 4 4v9.78c0 2.21-1.79 4-4.01 4h-5.85c-.68 2.5-1.65 4.88-2.88 7.09l4.25 4.25c1.563 1.57 1.57 4.1 0 5.66l-6.91 6.91c-1.56 1.57-4.09 1.57-5.66 0l-4.26-4.26c-2.05 1.14-4.24 2.05-6.54 2.71V79c0 2.21-1.79 4.004-4.006 4.004H36.1c-2.21 0-4-1.787-4-4.004v-6.25c-2.3-.664-4.49-1.577-6.54-2.71L21.3 74.3c-1.562 1.563-4.093 1.567-5.66 0l-6.91-6.91c-1.563-1.564-1.565-4.094.002-5.662l4.248-4.248c-1.227-2.216-2.198-4.593-2.875-7.09h-5.84C2.05 50.39.26 48.602.26 46.387V36.61c0-2.21 1.787-4 4.004-4H10.4c.726-2.372 1.72-4.626 2.95-6.73l-4.612-4.61c-1.564-1.563-1.57-4.093-.002-5.66l6.912-6.91c1.563-1.564 4.093-1.566 5.66 0l4.91 4.91c1.865-.97 3.836-1.766 5.893-2.36zM41 64c12.15 0 22-9.85 22-22s-9.85-22-22-22-22 9.85-22 22 9.85 22 22 22z" fill="#172C4C"/><path d="M54.57 24.683C61.39 15.48 66.353 8.7 66.353 8.7c-1.566-1.567-4.097-1.563-5.66 0l-4.91 4.91c-1.865-.97-3.836-1.766-5.893-2.36V4.006C49.89 1.788 48.097 0 45.887 0H36.11c-2.214 0-4 1.793-4 4.005v7.246c-2.057.6-4.03 1.39-5.892 2.36L21.31 8.7c-1.57-1.566-4.1-1.564-5.662 0l-6.912 6.91c-1.567 1.568-1.562 4.098.002 5.662l4.61 4.61c-1.227 2.103-2.222 4.357-2.95 6.73H4.265c-2.217 0-4.005 1.79-4.005 4v9.776c0 2.215 1.792 4 4.004 4h5.847c.68 2.5 1.65 4.876 2.88 7.092l-4.25 4.248c-1.56 1.568-1.56 4.098 0 5.66l6.91 6.912c.49.49 5.62-5.72 12.43-14.49C22.58 55.807 19 49.322 19 42c0-12.15 9.85-22 22-22 5.12 0 9.833 1.75 13.57 4.683z" fill="#FCFEFF" opacity=".1"/><circle stroke="#172C4C" stroke-width="3" cx="41" cy="42" r="10"/></g><path d="M504.637 478.135c-.504.38-1.007.643-1.642.643-.65 0-1.284-.264-1.657-.643l-38.067-38.807c-18.18-18.49-19.34-37.633-7.63-49.41 11.58-11.76 30.42-11.76 42 0 2.17 2.205 3.95 4.66 5.36 7.252 1.4-2.593 3.17-5.055 5.35-7.25 11.57-11.893 30.41-11.893 42.12 0 11.59 11.775 10.45 30.918-7.75 49.408l-38.06 38.807z" fill="#FF4C4C"/><path d="M280 281h4v-4h-32v4h4v108c0 6.627 5.373 12 12 12s12-5.373 12-12V281zm-50 0h4v-4h-32v4h4v108c0 6.627 5.373 12 12 12s12-5.373 12-12V281zm-50 0h4v-4h-32v4h4v108c0 6.627 5.373 12 12 12s12-5.373 12-12V281z" fill="#CED4DB"/><path d="M279.834 387H280v-30h-24v30h.166c-.11.65-.166 1.32-.166 2 0 6.627 5.373 12 12 12s12-5.373 12-12c0-.68-.057-1.35-.166-2zm-50 0H230v-90h-24v90h.166c-.11.65-.166 1.32-.166 2 0 6.627 5.373 12 12 12s12-5.373 12-12c0-.68-.057-1.35-.166-2zm-50 0H180v-50h-24v50h.166c-.11.65-.166 1.32-.166 2 0 6.627 5.373 12 12 12s12-5.373 12-12c0-.68-.057-1.35-.166-2z" fill="#172C4C"/><g transform="translate(718 270)" fill="#172C4C"><path d="M24.696 89.305c.043.348.066.702.066 1.06 0 4.66-3.777 8.436-8.435 8.436-4.657 0-8.434-3.77-8.434-8.43s3.777-8.43 8.434-8.43c3.068 0 5.755 1.64 7.23 4.09l31.91-9.75 1.015 3.32-31.786 9.72z" opacity=".6"/><path d="M10.994 92.285c.992 2.48 3.465 7.578 7.894 6.14 4.43-1.44 6.855-6.2 5.415-10.63-1.44-4.428-6.198-6.854-10.628-5.415-4.43 1.44-3.674 7.424-2.68 9.905z" opacity=".7"/><path d="M93.077 99.254c.314-.154.642-.29.98-.408 4.406-1.516 9.206.826 10.723 5.23 1.516 4.403-.825 9.204-5.23 10.72-4.402 1.517-9.204-.825-10.72-5.23-1-2.9-.324-5.973 1.512-8.166L70.73 74.405l2.81-2.04 19.537 26.89z" opacity=".6"/><path d="M100.355 111.24c2.022-1.746 6.037-5.743 3.234-9.463-2.81-3.72-8.1-4.463-11.82-1.66-3.72 2.802-4.47 8.093-1.66 11.812 2.8 3.72 8.21 1.05 10.24-.69z" opacity=".7"/><path d="M111.608 56.832c-.068-.344-.115-.695-.14-1.054-.325-4.646 3.18-8.677 7.825-9.002 4.646-.325 8.678 3.18 9.003 7.825.324 4.65-3.18 8.68-7.826 9.01-3.06.22-5.855-1.23-7.498-3.57l-31.15 11.95-1.245-3.24 31.03-11.91z" opacity=".6"/><path d="M125.068 52.904c-1.162-2.405-3.985-7.318-8.303-5.573-4.318 1.75-6.405 6.67-4.66 10.98 1.744 4.32 6.66 6.41 10.98 4.66 4.318-1.74 3.146-7.66 1.983-10.06z" opacity=".7"/><path d="M69.664 32.06c-2.077-.593-3.597-2.505-3.597-4.772 0-2.738 2.22-4.96 4.96-4.96 2.742 0 4.963 2.222 4.963 4.96 0 2.176-1.4 4.025-3.35 4.694v25.505h-2.976V32.06z" opacity=".5"/><path d="M66.067 27.288c0 2.74 2.222 4.962 4.96 4.962 2.74 0 4.963-2.222 4.963-4.962 0-2.74-3.473-3.473-4.962-3.473-1.488 0-4.96.734-4.96 3.473z" opacity=".6"/><path d="M32.803 62.977c-2.374 3.67-6.62 5.973-11.29 5.647-6.833-.478-11.986-6.406-11.508-13.24.478-6.833 6.405-11.986 13.24-11.508 6.833.478 11.985 6.405 11.507 13.24-.03.417-.08.83-.148 1.234l19.15 6.594-1.616 4.69-19.335-6.657z" opacity=".8"/><path d="M17.982 67.95c6.396 2.454 13.57-.74 16.025-7.136 2.455-6.395-.74-13.57-7.134-16.025-6.396-2.46-11.525 4.94-12.6 8.56-1.078 3.62-2.686 12.14 3.71 14.59z" opacity=".9"/><path d="M71.293 109.265c4.136 1.415 7.397 4.978 8.21 9.587 1.19 6.747-3.316 13.18-10.062 14.37-6.74 1.19-13.18-3.315-14.36-10.062-1.19-6.746 3.32-13.18 10.06-14.37.42-.072.83-.123 1.24-.154l1.76-20.176 4.95.432-1.78 20.373z" opacity=".8"/><path d="M79.702 122.442c.835-6.8-4-12.988-10.8-13.823-6.8-.84-12.988 4-13.823 10.8-.84 6.79 7.4 9.08 11.11 9.74 3.71.66 12.67.07 13.5-6.73z" opacity=".9"/><path d="M99.956 29.815c-1.096-1.19-1.95-2.64-2.453-4.29-1.803-5.897 1.515-12.138 7.41-13.94 5.897-1.803 12.138 1.515 13.94 7.41 1.804 5.897-1.515 12.138-7.41 13.94-2.878.88-5.837.54-8.322-.723l-25.97 35.75-3.21-2.332 26.02-35.815z" opacity=".7"/><path d="M101.518 31.29c4.988 3.624 11.97 2.518 15.594-2.47 3.624-4.988-1.926-10.462-4.407-12.447-2.48-1.985-10.032-5.664-13.656-.676-3.63 4.988-2.52 11.97 2.46 15.593z" opacity=".8"/><path d="M130.16 92.287c.867-1.367 2.046-2.566 3.51-3.48 5.23-3.268 12.116-1.678 15.383 3.55 3.267 5.23 1.677 12.116-3.552 15.384-5.22 3.27-12.11 1.68-15.38-3.55-1.59-2.55-2.03-5.49-1.45-8.22L87.41 80.13l1.42-3.706 41.33 15.866z" opacity=".7"/><path d="M129.14 94.178c-2.21 5.755.665 12.213 6.42 14.422 5.757 2.21 9.61-4.568 10.884-7.478 1.275-2.91 2.874-11.156-2.882-13.366-5.755-2.21-12.213.666-14.422 6.422z" opacity=".8"/><path d="M28.107 123.255c.966 1.3 1.662 2.83 1.992 4.524 1.17 6.05-2.78 11.91-8.83 13.08-6.06 1.17-11.91-2.78-13.09-8.83-1.18-6.06 2.77-11.92 8.83-13.09 2.95-.58 5.86.07 8.2 1.59L54.78 87.7l2.95 2.657-29.623 32.898z" opacity=".7"/><path d="M26.708 121.625c-4.582-4.125-11.64-3.755-15.766.827-4.126 4.58.82 10.606 3.08 12.84 2.26 2.232 9.387 6.68 13.512 2.1 4.125-4.583 3.756-11.64-.826-15.767z" opacity=".8"/><path d="M37.114 24.52c-1.505.596-3.163.873-4.885.752-6.16-.43-10.79-5.764-10.36-11.915C22.3 7.207 27.63 2.57 33.78 3c6.15.43 10.788 5.764 10.358 11.915-.21 3-1.587 5.64-3.657 7.51l24.07 37.06-3.32 2.162L37.11 24.52z" opacity=".7"/><path d="M39.73 23.057c4.99-3.624 6.094-10.605 2.47-15.593-3.623-4.988-10.453-1.262-12.87.52-2.414 1.78-8.816 7.616-5.192 12.604 3.624 4.988 10.605 6.093 15.593 2.47z" opacity=".8"/><ellipse cx="71.524" cy="74.423" rx="22.327" ry="22.327"/></g><g fill="#172C4C"><g opacity=".3" transform="translate(597 590)"><circle cx="78" cy="29" r="29"/><circle cx="78.005" cy="127.005" r="29"/><circle cx="35.687" cy="53.005" r="29"/><circle cx="53" cy="36" r="29"/><circle cx="103.005" cy="120.005" r="29"/><circle cx="120.005" cy="103.005" r="29"/><circle cx="120" cy="54" r="29"/><circle cx="53.005" cy="120.005" r="29"/><circle cx="36.005" cy="103.005" r="29"/><circle cx="127" cy="78" r="29"/><circle cx="29.005" cy="78.005" r="29"/><circle cx="103.005" cy="36.005" r="29"/></g><g opacity=".7"><path d="M655.513 597.523C649.67 602.83 646 610.486 646 619c0 14.13 10.108 25.902 23.487 28.477C675.33 642.17 679 634.514 679 626c0-14.13-10.108-25.902-23.487-28.477zm38.99 140.957c9.903-8.975 12.57-23.932 5.617-35.975-4.375-7.576-11.65-12.432-19.614-13.974-9.902 8.98-12.57 23.94-5.616 35.98 4.374 7.58 11.65 12.43 19.614 13.98zm-90.233-89.686c1.603 7.85 6.432 15.004 13.917 19.326 12.163 7.022 27.298 4.232 36.24-5.914-.61-2.983-1.7-5.92-3.307-8.7-8.01-13.872-25.745-18.624-39.615-10.616-2.79 1.61-5.212 3.616-7.235 5.904zm91.254 24.72c8.972-9.91 23.935-12.58 35.98-5.624 7.572 4.37 12.427 11.64 13.972 19.6C740.17 693.33 732.514 697 724 697c-14.13 0-25.9-10.107-28.476-23.486zm-6.097-20.504C688.5 650.176 688 647.147 688 644c0-16.016 12.984-29 29-29 3.728 0 7.293.704 10.567 1.985 2.47 7.557 1.84 16.093-2.447 23.52-7.27 12.592-22.558 17.67-35.693 12.506zm-66.587 67.16c-4.898-13.04.204-28.086 12.665-35.28 7.804-4.506 16.832-4.972 24.662-2.047 2.924 7.83 2.458 16.858-2.047 24.662-7.195 12.46-22.24 17.562-35.28 12.665z"/><path d="M680.505 647.478C693.89 644.906 704 633.134 704 619c0-8.51-3.665-16.163-9.503-21.468-7.96 1.544-15.234 6.4-19.607 13.973-6.953 12.043-4.287 27 5.615 35.973zM669.5 688.524c-3.084.596-6.123 1.708-8.995 3.366-13.87 8.008-18.623 25.744-10.615 39.615 1.544 2.674 3.45 5.01 5.62 6.98 3.084-.596 6.122-1.707 8.995-3.365 13.87-8.01 18.623-25.745 10.615-39.615-1.545-2.675-3.45-5.01-5.62-6.98zm-9.698-35.222c4.982-13.07-.112-28.193-12.615-35.412-7.687-4.438-16.562-4.957-24.31-2.176C621.664 618.91 621 622.378 621 626c0 16.016 12.984 29 29 29 3.44 0 6.74-.6 9.802-1.698zm30.038 29.538c13.04-4.898 28.085.204 35.28 12.665 4.505 7.804 4.97 16.832 2.047 24.662-7.83 2.924-16.858 2.458-24.662-2.047-12.46-7.195-17.563-22.24-12.665-35.28zm5.535-19.517c5.31 5.94 13.03 9.677 21.625 9.677 14.424 0 26.39-10.53 28.625-24.323-5.31-5.94-13.03-9.677-21.625-9.677-14.424 0-26.39 10.53-28.625 24.323zm-90.85 24.174c.596-3.083 1.707-6.12 3.365-8.992 8.008-13.87 25.744-18.623 39.615-10.615 2.672 1.543 5.005 3.446 6.974 5.613-1.55 7.965-6.4 15.242-13.98 19.617-12.05 6.954-27.01 4.285-35.98-5.623z"/></g><path d="M688.014 644.923C697.494 640.153 704 630.336 704 619c0-.31-.005-.616-.014-.923C694.506 622.847 688 632.664 688 644c0 .31.005.616.014.923zm15.932 73.977c.367-5.534-.846-11.232-3.826-16.395-2.936-5.085-7.18-8.944-12.06-11.4-.69 10.666 4.563 21.31 14.445 27.015.476.274.956.534 1.44.78zm-85.8-50.805l.04.025c9.424 5.44 20.63 4.99 29.36-.206l-.04-.024c-9.424-5.44-20.63-4.99-29.36.205zm56.86-56.79c2.538 4.31 3.994 9.332 3.994 14.695 0 5.367-1.458 10.393-4 14.705-5.107-8.706-5.517-19.834-.11-29.2.04-.067.077-.134.117-.2zM698.1 681.06c10.668-.693 21.313 4.56 27.02 14.445.273.474.532.952.776 1.434-.627.04-1.26.06-1.896.06-11.318 0-21.122-6.49-25.9-15.94zm-73.992 15.886c2.455-4.88 6.313-9.12 11.397-12.056 5.164-2.98 10.863-4.194 16.397-3.826-2.455 4.88-6.314 9.12-11.397 12.056-5.164 2.98-10.863 4.194-16.397 3.826zm21.942-79.68c-.033.574-.05 1.15-.05 1.734 0 11.2 6.348 20.915 15.64 25.747.63-10.613-4.62-21.18-14.453-26.857-.376-.217-.755-.425-1.136-.623zm15.896 73.844c-.485.245-.965.505-1.44.78-9.883 5.705-15.137 16.348-14.445 27.013 4.88-2.454 9.13-6.314 12.06-11.398 2.98-5.163 4.2-10.86 3.83-16.394zM624.1 639.06c4.78 9.457 14.583 15.94 25.9 15.94.637 0 1.27-.02 1.896-.06-.244-.483-.503-.96-.776-1.435-5.707-9.884-16.352-15.138-27.02-14.444zm50.902 56.243c-5.11 8.706-5.52 19.835-.112 29.202l.118.202c5.108-8.706 5.52-19.836.112-29.202l-.118-.202zm26.478-26.8c8.82-5.578 20.36-6.192 30.025-.613.343.198.68.403 1.014.613C728.03 671.35 722.7 673 717 673s-11.03-1.65-15.52-4.497zm24.42-29.443c-.628-.04-1.262-.06-1.9-.06-11.322 0-21.128 6.488-25.904 15.948 10.668.696 21.316-4.558 27.024-14.443.275-.477.535-.958.78-1.444z" opacity=".4"/></g><path d="M473.097 116c-5.542-6.668-8.874-15.238-8.874-24.585 0-21.256 17.233-38.49 38.49-38.49 10.664 0 20.316 4.34 27.287 11.346-9.89.79-26.358 6.31-37.737 17.62-12.826 12.75-15.85 26.19-19.166 34.11z" fill="#fcfeff" opacity=".2"/><ellipse fill="#172C4C" cx="168" cy="337" rx="12" ry="2"/><ellipse fill="#FCFEFF" opacity=".1" cx="168" cy="337" rx="12" ry="2"/><ellipse fill="#172C4C" cx="218" cy="297" rx="12" ry="2"/><ellipse fill="#FCFEFF" opacity=".1" cx="218" cy="297" rx="12" ry="2"/><ellipse fill="#172C4C" cx="268" cy="357" rx="12" ry="2"/><ellipse fill="#FCFEFF" opacity=".1" cx="268" cy="357" rx="12" ry="2"/><ellipse fill="#CED4DB" cx="268" cy="277" rx="16" ry="2"/><ellipse fill="#CED4DB" cx="268" cy="281" rx="16" ry="2"/><ellipse fill="#CED4DB" cx="218" cy="277" rx="16" ry="2"/><ellipse fill="#CED4DB" cx="218" cy="281" rx="16" ry="2"/><ellipse fill="#CED4DB" cx="168" cy="277" rx="16" ry="2"/><ellipse fill="#CED4DB" cx="168" cy="281" rx="16" ry="2"/></g></svg>